HIERARCHY
ROOT Hips
{
	OFFSET 0.000000 0.000000 0.000000
	CHANNELS 6 Xposition Yposition Zposition Xrotation Yrotation Zrotation
	JOINT LeftUpLeg_virtual
	{
		OFFSET 0.000000 0.000000 0.000000
		CHANNELS 3 Xrotation Yrotation Zrotation
		JOINT LeftUpLeg
		{
			OFFSET 15.427100 -6.655098 0.678600
			CHANNELS 3 Xrotation Yrotation Zrotation
			JOINT LeftLeg
			{
				OFFSET 4.081073 -39.591068 13.024000
				CHANNELS 3 Xrotation Yrotation Zrotation
				JOINT LeftFoot
				{
					OFFSET -4.081074 -37.707932 -15.979700
					CHANNELS 3 Xrotation Yrotation Zrotation
					JOINT LeftToeBase
					{
						OFFSET 5.346399 -15.068900 20.645000
						CHANNELS 3 Xrotation Yrotation Zrotation
						JOINT LeftToe_End
						{
							OFFSET 2.754700 0.931300 11.300900
							CHANNELS 3 Xrotation Yrotation Zrotation
							End Site
							{
								OFFSET 0 0 0
							}
						}
					}
				}
			}
		}
	}
	JOINT RightUpLeg_virtual
	{
		OFFSET 0.000000 0.000000 0.000000
		CHANNELS 3 Xrotation Yrotation Zrotation
		JOINT RightUpLeg
		{
			OFFSET -15.569500 -6.655098 0.678600
			CHANNELS 3 Xrotation Yrotation Zrotation
			JOINT RightLeg
			{
				OFFSET -4.081825 -39.591045 13.023800
				CHANNELS 3 Xrotation Yrotation Zrotation
				JOINT RightFoot
				{
					OFFSET 4.081824 -37.707954 -15.979600
					CHANNELS 3 Xrotation Yrotation Zrotation
					JOINT RightToeBase
					{
						OFFSET -5.346400 -15.068900 20.645000
						CHANNELS 3 Xrotation Yrotation Zrotation
						JOINT RightToe_End
						{
							OFFSET -2.754700 0.931300 11.300900
							CHANNELS 3 Xrotation Yrotation Zrotation
							End Site
							{
								OFFSET 0 0 0
							}
						}
					}
				}
			}
		}
	}
	JOINT Spine_virtual
	{
		OFFSET 0.000000 0.000000 0.000000
		CHANNELS 3 Xrotation Yrotation Zrotation
		JOINT Spine
		{
			OFFSET -0.279200 12.230698 -2.892100
			CHANNELS 3 Xrotation Yrotation Zrotation
			JOINT Spine1
			{
				OFFSET -0.232667 10.192268 -1.242267
				CHANNELS 3 Xrotation Yrotation Zrotation
				JOINT Spine1_split
				{
					OFFSET -0.232667 10.192268 -1.242267
					CHANNELS 3 Xrotation Yrotation Zrotation
					JOINT Spine2
					{
						OFFSET -0.232667 10.192268 -1.242267
						CHANNELS 3 Xrotation Yrotation Zrotation
						JOINT Neck_virtual
						{
							OFFSET 0.000000 0.000000 0.000000
							CHANNELS 3 Xrotation Yrotation Zrotation
							JOINT Neck
							{
								OFFSET -0.418800 17.814194 8.416900
								CHANNELS 3 Xrotation Yrotation Zrotation
								JOINT Head
								{
									OFFSET 0.000000 7.031097 3.806800
									CHANNELS 3 Xrotation Yrotation Zrotation
									JOINT HeadTop_End
									{
										OFFSET 0.000000 24.646606 12.978600
										CHANNELS 3 Xrotation Yrotation Zrotation
										End Site
										{
											OFFSET 0 0 0
										}
									}
								}
							}
						}
						JOINT LeftShoulder_virtual
						{
							OFFSET 0.000000 0.000000 0.000000
							CHANNELS 3 Xrotation Yrotation Zrotation
							JOINT LeftShoulder
							{
								OFFSET 8.476499 7.247704 -3.868750
								CHANNELS 3 Xrotation Yrotation Zrotation
								JOINT LeftShoulder_split
								{
									OFFSET 8.476499 7.247704 -3.868750
									CHANNELS 3 Xrotation Yrotation Zrotation
									JOINT LeftArm
									{
										OFFSET 9.308998 -2.777710 0.208600
										CHANNELS 3 Xrotation Yrotation Zrotation
										JOINT LeftForeArm
										{
											OFFSET 29.972298 0.000000 0.000000
											CHANNELS 3 Xrotation Yrotation Zrotation
											JOINT LeftHand
											{
												OFFSET 26.026505 0.000000 0.000000
												CHANNELS 3 Xrotation Yrotation Zrotation
												End Site
												{
													OFFSET 0 0 0
												}
											}
										}
									}
								}
							}
						}
						JOINT RightShoulder_virtual
						{
							OFFSET 0.000000 0.000000 0.000000
							CHANNELS 3 Xrotation Yrotation Zrotation
							JOINT RightShoulder
							{
								OFFSET -7.570500 7.247704 -3.868750
								CHANNELS 3 Xrotation Yrotation Zrotation
								JOINT RightShoulder_split
								{
									OFFSET -7.570500 7.247704 -3.868750
									CHANNELS 3 Xrotation Yrotation Zrotation
									JOINT RightArm
									{
										OFFSET -9.308998 -2.777710 0.208500
										CHANNELS 3 Xrotation Yrotation Zrotation
										JOINT RightForeArm
										{
											OFFSET -29.972300 0.000000 0.000000
											CHANNELS 3 Xrotation Yrotation Zrotation
											JOINT RightHand
											{
												OFFSET -26.026505 0.000000 0.000000
												CHANNELS 3 Xrotation Yrotation Zrotation
												End Site
												{
													OFFSET 0 0 0
												}
											}
										}
									}
								}
							}
						}
					}
				}
			}
		}
	}
}
MOTION
Frames: 11
Frame Time: 0.03333333
1.625282 87.884209 -4.551090 0.000000 0.000000 0.000000 2.133677 -10.141754 -1.379792 -36.509786 1.964313 8.459385 29.966789 0.020360 2.546525 4.503854 0.339061 -5.480604 -0.389919 -1.257103 -0.209100 0.000000 0.000000 0.000000 2.133677 -10.141754 -1.379792 -8.550695 -10.929219 -15.315174 30.464061 -8.581714 3.578434 -18.935139 -4.872154 14.751607 -1.185616 0.325696 0.665575 0.000000 0.000000 0.000000 2.133677 -10.141754 -1.379792 21.571587 5.718336 0.705734 2.951612 1.865108 -0.160994 0.000000 0.000000 0.000000 0.000000 0.000000 0.000000 2.950960 1.939448 -0.175154 -4.099833 15.090188 2.372695 6.098630 46.772927 -19.938104 0.000000 0.000000 0.000000 2.950960 1.939448 -0.175154 1.306153 -33.191294 4.056575 0.000000 0.000000 0.000000 -22.439091 -14.543447 -67.584783 0.000007 -44.463708 -8.793771 0.000000 0.000000 0.000000 2.950960 1.939448 -0.175154 9.474266 21.562351 -11.639588 0.000000 0.000000 0.000000 -44.239053 10.875449 78.236784 0.000023 50.076406 2.035034 0.000000 0.000000 0.000000 
1.786819 87.936310 -3.991577 0.000000 0.000000 0.000000 2.292456 -9.443377 -1.376594 -36.545054 1.979094 7.904276 30.150087 -0.319157 2.620924 4.142447 0.300824 -5.130156 -0.395706 -1.291660 -0.208757 0.000000 0.000000 0.000000 2.292456 -9.443377 -1.376594 -7.741258 -11.081531 -15.442373 29.958272 -9.089168 3.589477 -19.055384 -5.106516 15.323866 -1.223655 0.270143 0.714840 0.000000 0.000000 0.000000 2.292456 -9.443377 -1.376594 21.463478 5.695829 0.256940 2.917132 1.985256 -0.390848 0.000000 0.000000 0.000000 0.000000 0.000000 0.000000 2.916580 2.058883 -0.406593 -4.390905 14.896789 2.706928 5.129831 46.545004 -18.898493 0.000000 0.000000 0.000000 2.916580 2.058883 -0.406593 1.216770 -33.714490 4.232017 0.000000 0.000000 0.000000 -21.704816 -14.643569 -67.511441 -0.000002 -44.942498 -7.663750 0.000000 0.000000 0.000000 2.916580 2.058883 -0.406593 9.352114 20.644021 -11.270546 0.000000 0.000000 0.000000 -44.692144 11.251938 79.128507 0.000037 49.534205 1.683173 0.000000 0.000000 0.000000 
1.929267 87.950340 -3.442986 0.000000 0.000000 0.000000 2.451869 -8.836264 -1.344142 -36.598643 2.035948 7.390102 30.403648 -0.631777 2.703645 3.739733 0.268802 -4.818029 -0.412883 -1.385390 -0.206848 0.000000 0.000000 0.000000 2.451869 -8.836264 -1.344142 -7.005271 -11.124800 -15.579667 29.565218 -9.600645 3.604770 -19.212853 -5.341286 15.885012 -1.263107 0.206531 0.771714 0.000000 0.000000 0.000000 2.451869 -8.836264 -1.344142 21.355331 5.650662 -0.184476 2.878261 2.069779 -0.624885 0.000000 0.000000 0.000000 0.000000 0.000000 0.000000 2.876965 2.143173 -0.641693 -4.672453 14.693774 3.114029 4.033514 46.222373 -17.716256 0.000000 0.000000 0.000000 2.876965 2.143173 -0.641693 1.177280 -34.220672 4.459813 0.000000 0.000000 0.000000 -20.925131 -14.883100 -67.421214 0.000019 -45.299973 -6.535486 0.000000 0.000000 0.000000 2.876965 2.143173 -0.641693 9.326587 20.046023 -11.021180 0.000000 0.000000 0.000000 -45.044281 11.395500 79.862240 0.000029 49.125347 1.440786 0.000000 0.000000 0.000000 
2.057695 87.929886 -2.911098 0.000000 0.000000 0.000000 2.611123 -8.323738 -1.311567 -36.672136 2.070592 6.929678 30.734622 -0.869450 2.807188 3.294352 0.243310 -4.570623 -0.420638 -1.430415 -0.206164 0.000000 0.000000 0.000000 2.611123 -8.323738 -1.311567 -6.346587 -11.090932 -15.689532 29.264041 -10.094506 3.596857 -19.391916 -5.575246 16.432376 -1.234820 0.174888 0.806958 0.000000 0.000000 0.000000 2.611123 -8.323738 -1.311567 21.236619 5.579751 -0.599285 2.849302 2.129480 -0.844700 0.000000 0.000000 0.000000 0.000000 0.000000 0.000000 2.847438 2.202040 -0.862805 -4.929251 14.453386 3.540124 2.841594 45.921018 -16.428785 0.000000 0.000000 0.000000 2.847438 2.202040 -0.862805 1.163072 -34.736440 4.700198 0.000000 0.000000 0.000000 -20.077621 -15.281488 -67.271967 0.000037 -45.545908 -5.419485 0.000000 0.000000 0.000000 2.847438 2.202040 -0.862805 9.325777 19.801676 -10.910309 0.000000 0.000000 0.000000 -45.200406 11.259160 80.387884 -0.001083 48.894251 1.360713 0.000000 0.000000 0.000000 
2.174199 87.893524 -2.403217 0.000000 0.000000 0.000000 2.776903 -7.903716 -1.285391 -36.740581 1.998644 6.532045 31.095474 -0.968927 2.900377 2.827458 0.227455 -4.404628 -0.401898 -1.340727 -0.208942 0.000000 0.000000 0.000000 2.776903 -7.903716 -1.285391 -5.787705 -11.063773 -15.752815 29.008899 -10.514223 3.524961 -19.566383 -5.795206 16.948419 -1.259676 0.156422 0.821493 0.000000 0.000000 0.000000 2.776903 -7.903716 -1.285391 21.116896 5.491426 -0.980924 2.823476 2.167073 -1.048660 0.000000 0.000000 0.000000 0.000000 0.000000 0.000000 2.821094 2.238482 -1.068036 -5.157355 14.180783 3.968676 1.571954 45.651127 -15.029867 0.000000 0.000000 0.000000 2.821094 2.238482 -1.068036 1.123641 -35.270660 4.914002 0.000000 0.000000 0.000000 -19.108113 -15.808162 -67.075709 0.000032 -45.717052 -4.327876 0.000000 0.000000 0.000000 2.821094 2.238482 -1.068036 9.384388 19.892062 -10.951403 0.000000 0.000000 0.000000 -45.158257 10.808120 80.694334 -0.014101 48.874867 1.482410 0.000000 0.000000 0.000000 
2.279573 87.852890 -1.924576 0.000000 0.000000 0.000000 2.955854 -7.564586 -1.264417 -36.801998 1.816328 6.195294 31.451590 -0.937211 2.967887 2.361207 0.221093 -4.309718 -0.386833 -1.260900 -0.211240 0.000000 0.000000 0.000000 2.955854 -7.564586 -1.264417 -5.314853 -11.026282 -15.785771 28.776106 -10.879511 3.429940 -19.723215 -5.997111 17.421005 -1.229341 0.188215 0.794597 0.000000 0.000000 0.000000 2.955854 -7.564586 -1.264417 21.013391 5.383648 -1.327920 2.788290 2.186790 -1.245508 0.000000 0.000000 0.000000 0.000000 0.000000 0.000000 2.785155 2.257960 -1.264478 -5.370282 13.919540 4.416281 0.275430 45.355188 -13.528529 0.000000 0.000000 0.000000 2.785155 2.257960 -1.264478 1.088736 -35.820046 5.111100 0.000000 0.000000 0.000000 -18.082950 -16.402114 -66.897366 0.000028 -45.795575 -3.255437 0.000000 0.000000 0.000000 2.785155 2.257960 -1.264478 9.396868 20.120358 -11.066235 0.000000 0.000000 0.000000 -44.871303 10.555117 80.916384 -0.013412 48.964202 1.461580 0.000000 0.000000 0.000000 
2.371979 87.818871 -1.481911 0.000000 0.000000 0.000000 3.145863 -7.293967 -1.240721 -36.870789 1.671248 5.896330 31.775389 -0.889057 3.058827 1.922525 0.213252 -4.248025 -0.400451 -1.335461 -0.209601 0.000000 0.000000 0.000000 3.145863 -7.293967 -1.240721 -4.891621 -10.907978 -15.817263 28.555576 -11.254151 3.378405 -19.854265 -6.180876 17.846309 -1.280410 0.170519 0.804583 0.000000 0.000000 0.000000 3.145863 -7.293967 -1.240721 20.926778 5.265491 -1.648116 2.755592 2.184429 -1.440594 0.000000 0.000000 0.000000 0.000000 0.000000 0.000000 2.750933 2.255320 -1.459309 -5.606410 13.672658 4.877757 -0.975208 45.046272 -11.968025 0.000000 0.000000 0.000000 2.750933 2.255320 -1.459309 1.049587 -36.356441 5.308628 0.000000 0.000000 0.000000 -17.086644 -16.973418 -66.827069 0.000042 -45.788755 -2.196309 0.000000 0.000000 0.000000 2.750933 2.255320 -1.459309 9.439490 20.304670 -11.201518 0.000000 0.000000 0.000000 -44.595080 10.370996 81.148644 -0.012440 49.034614 1.455482 0.000000 0.000000 0.000000 
2.449245 87.797958 -1.080494 0.000000 0.000000 0.000000 3.342440 -7.092945 -1.205070 -36.936205 1.597188 5.641098 32.042446 -0.858354 3.152410 1.527345 0.208733 -4.196411 -0.401809 -1.332014 -0.209607 0.000000 0.000000 0.000000 3.342440 -7.092945 -1.205070 -4.547387 -10.793301 -15.853544 28.337132 -11.564808 3.339989 -19.956938 -6.335476 18.200842 -1.291190 0.217382 0.756893 0.000000 0.000000 0.000000 3.342440 -7.092945 -1.205070 20.856469 5.122627 -1.961510 2.737943 2.169855 -1.626763 0.000000 0.000000 0.000000 0.000000 0.000000 0.000000 2.732986 2.240333 -1.645711 -5.889172 13.451446 5.309058 -2.115176 44.769254 -10.451080 0.000000 0.000000 0.000000 2.732986 2.240333 -1.645711 1.083172 -36.844991 5.529987 0.000000 0.000000 0.000000 -16.264154 -17.472148 -66.876650 0.000056 -45.693129 -1.167510 0.000000 0.000000 0.000000 2.732986 2.240333 -1.645711 9.454766 20.453859 -11.400885 0.000000 0.000000 0.000000 -44.298913 10.207651 81.436195 -0.009826 49.087443 1.438787 0.000000 0.000000 0.000000 
2.509581 87.792030 -0.724213 0.000000 0.000000 0.000000 3.548575 -6.971735 -1.147132 -36.983634 1.539861 5.448465 32.236372 -0.801042 3.195634 1.180794 0.211347 -4.156899 -0.403031 -1.342542 -0.209582 0.000000 0.000000 0.000000 3.548575 -6.971735 -1.147132 -4.323610 -10.747344 -15.898754 28.123418 -11.747125 3.280327 -20.033898 -6.451565 18.469829 -1.284934 0.272317 0.703735 0.000000 0.000000 0.000000 3.548575 -6.971735 -1.147132 20.821820 4.977043 -2.265035 2.723014 2.143228 -1.813432 0.000000 0.000000 0.000000 0.000000 0.000000 0.000000 2.717016 2.211432 -1.832234 -6.196590 13.246841 5.664698 -3.130173 44.589466 -9.096968 0.000000 0.000000 0.000000 2.717016 2.211432 -1.832234 1.079339 -37.249171 5.744167 0.000000 0.000000 0.000000 -15.576439 -17.883226 -67.076699 0.000025 -45.509912 -0.217906 0.000000 0.000000 0.000000 2.717016 2.211432 -1.832234 9.535802 20.592566 -11.660475 0.000000 0.000000 0.000000 -44.060259 10.052050 81.727079 -0.006432 49.127648 1.417072 0.000000 0.000000 0.000000 
2.551887 87.799263 -0.416595 0.000000 0.000000 0.000000 3.768507 -6.934138 -1.062977 -37.013021 1.454624 5.324060 32.356741 -0.679177 3.168875 0.882895 0.219927 -4.140960 -0.399542 -1.297534 -0.210190 0.000000 0.000000 0.000000 3.768507 -6.934138 -1.062977 -4.240777 -10.781793 -15.956710 27.925251 -11.784434 3.193273 -20.089690 -6.526901 18.649709 -1.297519 0.311700 0.663195 0.000000 0.000000 0.000000 3.768507 -6.934138 -1.062977 20.811667 4.832708 -2.551741 2.713643 2.118004 -2.000622 0.000000 0.000000 0.000000 0.000000 0.000000 0.000000 2.706120 2.185315 -2.019191 -6.514290 13.102400 5.918027 -4.017877 44.476720 -8.011214 0.000000 0.000000 0.000000 2.706120 2.185315 -2.019191 1.063648 -37.591674 5.957302 0.000000 0.000000 0.000000 -15.098697 -18.146665 -67.391004 0.000011 -45.218451 0.613358 0.000000 0.000000 0.000000 2.706120 2.185315 -2.019191 9.590080 20.722041 -11.941610 0.000000 0.000000 0.000000 -43.811234 9.892688 82.009357 -0.003737 49.157988 1.401184 0.000000 0.000000 0.000000 
2.575129 87.817245 -0.162113 0.000000 0.000000 0.000000 3.993553 -6.971671 -0.960833 -37.042134 1.417416 5.245994 32.419954 -0.548719 3.139802 0.636293 0.226908 -4.148318 -0.390868 -1.303761 -0.211417 0.000000 0.000000 0.000000 3.993553 -6.971671 -0.960833 -4.242423 -10.762758 -16.033673 27.760266 -11.793173 3.144812 -20.126375 -6.574711 18.764020 -1.308092 0.313866 0.659513 0.000000 0.000000 0.000000 3.993553 -6.971671 -0.960833 20.817426 4.706661 -2.829811 2.710885 2.106743 -2.168293 0.000000 0.000000 0.000000 0.000000 0.000000 0.000000 2.703304 2.175569 -2.187195 -6.814266 13.043122 6.052385 -4.774608 44.366426 -7.214530 0.000000 0.000000 0.000000 2.703304 2.175569 -2.187195 1.120314 -37.949713 6.185329 0.000000 0.000000 0.000000 -14.896274 -18.241181 -67.755565 0.000038 -44.805727 1.359977 0.000000 0.000000 0.000000 2.703304 2.175569 -2.187195 9.627211 20.837516 -12.225319 0.000000 0.000000 0.000000 -43.567950 9.714532 82.239617 -0.002295 49.184708 1.390646 0.000000 0.000000 0.000000 
